# xmcd
#
# Track frame offsets: 
#        150
#        11972
#        26027
#        41685
#        54230
#        68042
#        81292
#        98130
#        110992
#        124440
#        137002
#        147447
#        164300
#        175092
#        185652
#        197195
#        205367
#        218415
#        230030
#        248780
#
# Disc length: 3459 seconds
#
# Revision: 1
# Processed by: cddbd v1.5.2PL0 Copyright (c) Steve Scherf et al.
# Submitted via: ExactAudioCopy v0.99pb5
#
DISCID=300d8114
DTITLE=Johnny Cash - The best of Johnny Cash [Sony-Columbia]
DYEAR=1995
DGENRE=Country
TTITLE0=Ring of fire
TTITLE1=Orange blossom special 
TTITLE2=The night they drove old Dixie down
TTITLE3=Jackson
TTITLE4=Don't take your guns to town
TTITLE5=I walk the line
TTITLE6=A boy named Sue
TTITLE7=San Quentin
TTITLE8=If I were a carpenter 
TTITLE9=Folsom prison blues
TTITLE10=Kate
TTITLE11=(ghost) Riders in the sky
TTITLE12=Daddy sang bass
TTITLE13=Bonanza
TTITLE14=In them old cottonfields back home
TTITLE15=Five feet high and rising
TTITLE16=Man in black
TTITLE17=A thing called love
TTITLE18=The ballad of Ira Hayes
TTITLE19=In the jailhouse now 
EXTD=
EXTT0=
EXTT1=
EXTT2=
EXTT3=
EXTT4=
EXTT5=
EXTT6=
EXTT7=
EXTT8=
EXTT9=
EXTT10=
EXTT11=
EXTT12=
EXTT13=
EXTT14=
EXTT15=
EXTT16=
EXTT17=
EXTT18=
EXTT19=
PLAYORDER=
